<?xml version="1.0" standalone="no"?>
<!DOCTYPE svg PUBLIC "-//W3C//DTD SVG 20010904//EN"
 "http://www.w3.org/TR/2001/REC-SVG-20010904/DTD/svg10.dtd">
<svg version="1.0" xmlns="http://www.w3.org/2000/svg"
 width="465.000000pt" height="153.000000pt" viewBox="0 0 465.000000 153.000000"
 preserveAspectRatio="xMidYMid meet">

<g transform="translate(0.000000,153.000000) scale(0.100000,-0.100000)"
fill="#000000" stroke="none">
<path d="M330 1454 c-187 -51 -310 -233 -310 -459 0 -149 44 -249 152 -351 74
-69 146 -98 243 -99 71 0 88 4 145 32 115 56 208 175 236 300 18 83 15 207 -7
275 l-12 37 -29 -17 c-27 -15 -29 -20 -21 -52 4 -19 8 -80 8 -135 0 -87 -4
-107 -26 -156 -33 -69 -95 -130 -176 -170 -58 -29 -69 -31 -137 -27 -87 6
-133 29 -214 109 -71 70 -96 149 -90 282 3 78 9 102 36 159 105 219 355 265
509 94 44 -49 45 -50 71 -34 15 9 28 21 30 27 2 6 -28 41 -66 79 -50 51 -83
75 -123 90 -78 29 -153 35 -219 16z"/>
<path d="M890 1380 c-32 -22 -57 -47 -60 -61 -4 -17 -60 -61 -200 -157 -216
-147 -229 -157 -214 -172 6 -6 81 40 214 131 157 107 210 138 227 134 16 -4
40 6 78 31 60 40 65 49 36 57 -14 3 -21 15 -23 40 l-3 35 -55 -38z"/>
<path d="M341 1269 c-47 -14 -125 -98 -145 -155 -25 -74 -21 -188 8 -249 36
-74 55 -91 121 -114 74 -26 106 -26 175 -2 65 23 111 71 134 139 16 46 21 147
10 189 l-6 23 -31 -25 c-28 -21 -32 -30 -33 -79 -3 -104 -73 -186 -159 -186
-105 0 -187 123 -156 236 25 90 79 137 158 137 37 0 54 -7 108 -47 8 -6 23 -1
44 13 30 21 31 25 18 45 -8 11 -35 34 -61 50 -52 33 -127 43 -185 25z"/>
<path d="M365 1066 c-18 -18 -25 -36 -25 -64 0 -93 96 -128 136 -50 18 36 11
48 -14 25 -23 -21 -46 -22 -62 -2 -17 21 -5 59 25 75 31 17 28 34 -8 38 -18 2
-35 -5 -52 -22z"/>
</g>
</svg>
